<mxfile host="app.diagrams.net" modified="2024-01-09T11:40:59.876Z" agent="Mozilla/5.0 (Windows NT 10.0; Win64; x64) AppleWebKit/537.36 (KHTML, like Gecko) Chrome/120.0.0.0 Safari/537.36 Edg/120.0.0.0" etag="EA63WdW68VsbsWCPS1hS" version="22.1.16" type="github">
  <diagram name="第 1 页" id="HHsCbOhWLAx_uhxe6TRV">
    <mxGraphModel dx="1422" dy="1868" grid="1" gridSize="10" guides="1" tooltips="1" connect="1" arrows="1" fold="1" page="1" pageScale="1" pageWidth="827" pageHeight="1169" math="0" shadow="0">
      <root>
        <mxCell id="0" />
        <mxCell id="1" parent="0" />
        <mxCell id="oy_fxyoAN_TUTj9ulkCC-134" style="rounded=0;orthogonalLoop=1;jettySize=auto;html=1;exitX=1;exitY=0.5;exitDx=0;exitDy=0;entryX=0;entryY=0;entryDx=0;entryDy=0;strokeWidth=2;" edge="1" parent="1" source="oy_fxyoAN_TUTj9ulkCC-1" target="oy_fxyoAN_TUTj9ulkCC-119">
          <mxGeometry relative="1" as="geometry" />
        </mxCell>
        <mxCell id="oy_fxyoAN_TUTj9ulkCC-138" style="rounded=0;orthogonalLoop=1;jettySize=auto;html=1;exitX=1;exitY=0.5;exitDx=0;exitDy=0;entryX=0;entryY=0.5;entryDx=0;entryDy=0;strokeColor=#808080;" edge="1" parent="1" source="oy_fxyoAN_TUTj9ulkCC-1" target="oy_fxyoAN_TUTj9ulkCC-8">
          <mxGeometry relative="1" as="geometry" />
        </mxCell>
        <mxCell id="oy_fxyoAN_TUTj9ulkCC-1" value="" style="ellipse;whiteSpace=wrap;html=1;aspect=fixed;fillColor=none;" vertex="1" parent="1">
          <mxGeometry y="200" width="40" height="40" as="geometry" />
        </mxCell>
        <mxCell id="oy_fxyoAN_TUTj9ulkCC-135" style="edgeStyle=orthogonalEdgeStyle;rounded=0;orthogonalLoop=1;jettySize=auto;html=1;exitX=1;exitY=0.5;exitDx=0;exitDy=0;entryX=0;entryY=0.5;entryDx=0;entryDy=0;strokeWidth=2;" edge="1" parent="1" source="oy_fxyoAN_TUTj9ulkCC-2" target="oy_fxyoAN_TUTj9ulkCC-119">
          <mxGeometry relative="1" as="geometry" />
        </mxCell>
        <mxCell id="oy_fxyoAN_TUTj9ulkCC-2" value="" style="ellipse;whiteSpace=wrap;html=1;aspect=fixed;fillColor=none;" vertex="1" parent="1">
          <mxGeometry y="340" width="40" height="40" as="geometry" />
        </mxCell>
        <mxCell id="oy_fxyoAN_TUTj9ulkCC-136" style="rounded=0;orthogonalLoop=1;jettySize=auto;html=1;exitX=1;exitY=0.5;exitDx=0;exitDy=0;entryX=0;entryY=1;entryDx=0;entryDy=0;strokeWidth=2;" edge="1" parent="1" source="oy_fxyoAN_TUTj9ulkCC-3" target="oy_fxyoAN_TUTj9ulkCC-119">
          <mxGeometry relative="1" as="geometry" />
        </mxCell>
        <mxCell id="oy_fxyoAN_TUTj9ulkCC-3" value="" style="ellipse;whiteSpace=wrap;html=1;aspect=fixed;fillColor=none;" vertex="1" parent="1">
          <mxGeometry y="520" width="40" height="40" as="geometry" />
        </mxCell>
        <mxCell id="oy_fxyoAN_TUTj9ulkCC-7" value="" style="rounded=1;whiteSpace=wrap;html=1;dashed=1;fillColor=none;strokeColor=#7EA6E0;strokeWidth=2;" vertex="1" parent="1">
          <mxGeometry x="160" y="240" width="520" height="240" as="geometry" />
        </mxCell>
        <mxCell id="oy_fxyoAN_TUTj9ulkCC-8" value="" style="ellipse;whiteSpace=wrap;html=1;aspect=fixed;fillColor=none;" vertex="1" parent="1">
          <mxGeometry x="380" y="80" width="40" height="40" as="geometry" />
        </mxCell>
        <mxCell id="oy_fxyoAN_TUTj9ulkCC-9" value="" style="ellipse;whiteSpace=wrap;html=1;aspect=fixed;fillColor=none;" vertex="1" parent="1">
          <mxGeometry x="380" y="140" width="40" height="40" as="geometry" />
        </mxCell>
        <mxCell id="oy_fxyoAN_TUTj9ulkCC-10" value="" style="ellipse;whiteSpace=wrap;html=1;aspect=fixed;fillColor=none;" vertex="1" parent="1">
          <mxGeometry x="380" y="560" width="40" height="40" as="geometry" />
        </mxCell>
        <mxCell id="oy_fxyoAN_TUTj9ulkCC-39" value="" style="group;fillColor=default;" vertex="1" connectable="0" parent="1">
          <mxGeometry x="80" y="240" width="40" height="40" as="geometry" />
        </mxCell>
        <mxCell id="oy_fxyoAN_TUTj9ulkCC-25" value="" style="shape=table;startSize=0;container=1;collapsible=0;childLayout=tableLayout;fontSize=16;fillColor=none;strokeColor=#CCCCCC;strokeWidth=2;" vertex="1" parent="oy_fxyoAN_TUTj9ulkCC-39">
          <mxGeometry width="40" height="40" as="geometry" />
        </mxCell>
        <mxCell id="oy_fxyoAN_TUTj9ulkCC-26" value="" style="shape=tableRow;horizontal=0;startSize=0;swimlaneHead=0;swimlaneBody=0;strokeColor=#CCCCCC;top=0;left=0;bottom=0;right=0;collapsible=0;dropTarget=0;fillColor=none;points=[[0,0.5],[1,0.5]];portConstraint=eastwest;fontSize=16;strokeWidth=2;" vertex="1" parent="oy_fxyoAN_TUTj9ulkCC-25">
          <mxGeometry width="40" height="13" as="geometry" />
        </mxCell>
        <mxCell id="oy_fxyoAN_TUTj9ulkCC-27" value="" style="shape=partialRectangle;html=1;whiteSpace=wrap;connectable=0;strokeColor=#CCCCCC;overflow=hidden;fillColor=none;top=0;left=0;bottom=0;right=0;pointerEvents=1;fontSize=16;strokeWidth=2;" vertex="1" parent="oy_fxyoAN_TUTj9ulkCC-26">
          <mxGeometry width="13" height="13" as="geometry">
            <mxRectangle width="13" height="13" as="alternateBounds" />
          </mxGeometry>
        </mxCell>
        <mxCell id="oy_fxyoAN_TUTj9ulkCC-28" value="" style="shape=partialRectangle;html=1;whiteSpace=wrap;connectable=0;strokeColor=#CCCCCC;overflow=hidden;fillColor=none;top=0;left=0;bottom=0;right=0;pointerEvents=1;fontSize=16;strokeWidth=2;" vertex="1" parent="oy_fxyoAN_TUTj9ulkCC-26">
          <mxGeometry x="13" width="14" height="13" as="geometry">
            <mxRectangle width="14" height="13" as="alternateBounds" />
          </mxGeometry>
        </mxCell>
        <mxCell id="oy_fxyoAN_TUTj9ulkCC-29" value="" style="shape=partialRectangle;html=1;whiteSpace=wrap;connectable=0;strokeColor=#CCCCCC;overflow=hidden;fillColor=none;top=0;left=0;bottom=0;right=0;pointerEvents=1;fontSize=16;strokeWidth=2;" vertex="1" parent="oy_fxyoAN_TUTj9ulkCC-26">
          <mxGeometry x="27" width="13" height="13" as="geometry">
            <mxRectangle width="13" height="13" as="alternateBounds" />
          </mxGeometry>
        </mxCell>
        <mxCell id="oy_fxyoAN_TUTj9ulkCC-30" value="" style="shape=tableRow;horizontal=0;startSize=0;swimlaneHead=0;swimlaneBody=0;strokeColor=#CCCCCC;top=0;left=0;bottom=0;right=0;collapsible=0;dropTarget=0;fillColor=none;points=[[0,0.5],[1,0.5]];portConstraint=eastwest;fontSize=16;strokeWidth=2;" vertex="1" parent="oy_fxyoAN_TUTj9ulkCC-25">
          <mxGeometry y="13" width="40" height="14" as="geometry" />
        </mxCell>
        <mxCell id="oy_fxyoAN_TUTj9ulkCC-31" value="" style="shape=partialRectangle;html=1;whiteSpace=wrap;connectable=0;strokeColor=#CCCCCC;overflow=hidden;fillColor=none;top=0;left=0;bottom=0;right=0;pointerEvents=1;fontSize=16;strokeWidth=2;" vertex="1" parent="oy_fxyoAN_TUTj9ulkCC-30">
          <mxGeometry width="13" height="14" as="geometry">
            <mxRectangle width="13" height="14" as="alternateBounds" />
          </mxGeometry>
        </mxCell>
        <mxCell id="oy_fxyoAN_TUTj9ulkCC-32" value="" style="shape=partialRectangle;html=1;whiteSpace=wrap;connectable=0;strokeColor=#CCCCCC;overflow=hidden;fillColor=none;top=0;left=0;bottom=0;right=0;pointerEvents=1;fontSize=16;strokeWidth=2;" vertex="1" parent="oy_fxyoAN_TUTj9ulkCC-30">
          <mxGeometry x="13" width="14" height="14" as="geometry">
            <mxRectangle width="14" height="14" as="alternateBounds" />
          </mxGeometry>
        </mxCell>
        <mxCell id="oy_fxyoAN_TUTj9ulkCC-33" value="" style="shape=partialRectangle;html=1;whiteSpace=wrap;connectable=0;strokeColor=#CCCCCC;overflow=hidden;fillColor=none;top=0;left=0;bottom=0;right=0;pointerEvents=1;fontSize=16;strokeWidth=2;" vertex="1" parent="oy_fxyoAN_TUTj9ulkCC-30">
          <mxGeometry x="27" width="13" height="14" as="geometry">
            <mxRectangle width="13" height="14" as="alternateBounds" />
          </mxGeometry>
        </mxCell>
        <mxCell id="oy_fxyoAN_TUTj9ulkCC-34" value="" style="shape=tableRow;horizontal=0;startSize=0;swimlaneHead=0;swimlaneBody=0;strokeColor=#CCCCCC;top=0;left=0;bottom=0;right=0;collapsible=0;dropTarget=0;fillColor=none;points=[[0,0.5],[1,0.5]];portConstraint=eastwest;fontSize=16;strokeWidth=2;" vertex="1" parent="oy_fxyoAN_TUTj9ulkCC-25">
          <mxGeometry y="27" width="40" height="13" as="geometry" />
        </mxCell>
        <mxCell id="oy_fxyoAN_TUTj9ulkCC-35" value="" style="shape=partialRectangle;html=1;whiteSpace=wrap;connectable=0;strokeColor=#CCCCCC;overflow=hidden;fillColor=none;top=0;left=0;bottom=0;right=0;pointerEvents=1;fontSize=16;strokeWidth=2;" vertex="1" parent="oy_fxyoAN_TUTj9ulkCC-34">
          <mxGeometry width="13" height="13" as="geometry">
            <mxRectangle width="13" height="13" as="alternateBounds" />
          </mxGeometry>
        </mxCell>
        <mxCell id="oy_fxyoAN_TUTj9ulkCC-36" value="" style="shape=partialRectangle;html=1;whiteSpace=wrap;connectable=0;strokeColor=#CCCCCC;overflow=hidden;fillColor=none;top=0;left=0;bottom=0;right=0;pointerEvents=1;fontSize=16;strokeWidth=2;" vertex="1" parent="oy_fxyoAN_TUTj9ulkCC-34">
          <mxGeometry x="13" width="14" height="13" as="geometry">
            <mxRectangle width="14" height="13" as="alternateBounds" />
          </mxGeometry>
        </mxCell>
        <mxCell id="oy_fxyoAN_TUTj9ulkCC-37" value="" style="shape=partialRectangle;html=1;whiteSpace=wrap;connectable=0;strokeColor=#CCCCCC;overflow=hidden;fillColor=none;top=0;left=0;bottom=0;right=0;pointerEvents=1;fontSize=16;strokeWidth=2;" vertex="1" parent="oy_fxyoAN_TUTj9ulkCC-34">
          <mxGeometry x="27" width="13" height="13" as="geometry">
            <mxRectangle width="13" height="13" as="alternateBounds" />
          </mxGeometry>
        </mxCell>
        <mxCell id="oy_fxyoAN_TUTj9ulkCC-38" value="" style="whiteSpace=wrap;html=1;aspect=fixed;fillColor=none;strokeWidth=2;" vertex="1" parent="oy_fxyoAN_TUTj9ulkCC-39">
          <mxGeometry width="40" height="40" as="geometry" />
        </mxCell>
        <mxCell id="oy_fxyoAN_TUTj9ulkCC-40" value="" style="group;fillColor=default;" vertex="1" connectable="0" parent="1">
          <mxGeometry x="80" y="340" width="40" height="40" as="geometry" />
        </mxCell>
        <mxCell id="oy_fxyoAN_TUTj9ulkCC-41" value="" style="shape=table;startSize=0;container=1;collapsible=0;childLayout=tableLayout;fontSize=16;fillColor=none;strokeColor=#CCCCCC;strokeWidth=2;" vertex="1" parent="oy_fxyoAN_TUTj9ulkCC-40">
          <mxGeometry width="40" height="40" as="geometry" />
        </mxCell>
        <mxCell id="oy_fxyoAN_TUTj9ulkCC-42" value="" style="shape=tableRow;horizontal=0;startSize=0;swimlaneHead=0;swimlaneBody=0;strokeColor=#CCCCCC;top=0;left=0;bottom=0;right=0;collapsible=0;dropTarget=0;fillColor=none;points=[[0,0.5],[1,0.5]];portConstraint=eastwest;fontSize=16;strokeWidth=2;" vertex="1" parent="oy_fxyoAN_TUTj9ulkCC-41">
          <mxGeometry width="40" height="13" as="geometry" />
        </mxCell>
        <mxCell id="oy_fxyoAN_TUTj9ulkCC-43" value="" style="shape=partialRectangle;html=1;whiteSpace=wrap;connectable=0;strokeColor=#CCCCCC;overflow=hidden;fillColor=none;top=0;left=0;bottom=0;right=0;pointerEvents=1;fontSize=16;strokeWidth=2;" vertex="1" parent="oy_fxyoAN_TUTj9ulkCC-42">
          <mxGeometry width="13" height="13" as="geometry">
            <mxRectangle width="13" height="13" as="alternateBounds" />
          </mxGeometry>
        </mxCell>
        <mxCell id="oy_fxyoAN_TUTj9ulkCC-44" value="" style="shape=partialRectangle;html=1;whiteSpace=wrap;connectable=0;strokeColor=#CCCCCC;overflow=hidden;fillColor=none;top=0;left=0;bottom=0;right=0;pointerEvents=1;fontSize=16;strokeWidth=2;" vertex="1" parent="oy_fxyoAN_TUTj9ulkCC-42">
          <mxGeometry x="13" width="14" height="13" as="geometry">
            <mxRectangle width="14" height="13" as="alternateBounds" />
          </mxGeometry>
        </mxCell>
        <mxCell id="oy_fxyoAN_TUTj9ulkCC-45" value="" style="shape=partialRectangle;html=1;whiteSpace=wrap;connectable=0;strokeColor=#CCCCCC;overflow=hidden;fillColor=none;top=0;left=0;bottom=0;right=0;pointerEvents=1;fontSize=16;strokeWidth=2;" vertex="1" parent="oy_fxyoAN_TUTj9ulkCC-42">
          <mxGeometry x="27" width="13" height="13" as="geometry">
            <mxRectangle width="13" height="13" as="alternateBounds" />
          </mxGeometry>
        </mxCell>
        <mxCell id="oy_fxyoAN_TUTj9ulkCC-46" value="" style="shape=tableRow;horizontal=0;startSize=0;swimlaneHead=0;swimlaneBody=0;strokeColor=#CCCCCC;top=0;left=0;bottom=0;right=0;collapsible=0;dropTarget=0;fillColor=none;points=[[0,0.5],[1,0.5]];portConstraint=eastwest;fontSize=16;strokeWidth=2;" vertex="1" parent="oy_fxyoAN_TUTj9ulkCC-41">
          <mxGeometry y="13" width="40" height="14" as="geometry" />
        </mxCell>
        <mxCell id="oy_fxyoAN_TUTj9ulkCC-47" value="" style="shape=partialRectangle;html=1;whiteSpace=wrap;connectable=0;strokeColor=#CCCCCC;overflow=hidden;fillColor=none;top=0;left=0;bottom=0;right=0;pointerEvents=1;fontSize=16;strokeWidth=2;" vertex="1" parent="oy_fxyoAN_TUTj9ulkCC-46">
          <mxGeometry width="13" height="14" as="geometry">
            <mxRectangle width="13" height="14" as="alternateBounds" />
          </mxGeometry>
        </mxCell>
        <mxCell id="oy_fxyoAN_TUTj9ulkCC-48" value="" style="shape=partialRectangle;html=1;whiteSpace=wrap;connectable=0;strokeColor=#CCCCCC;overflow=hidden;fillColor=none;top=0;left=0;bottom=0;right=0;pointerEvents=1;fontSize=16;strokeWidth=2;" vertex="1" parent="oy_fxyoAN_TUTj9ulkCC-46">
          <mxGeometry x="13" width="14" height="14" as="geometry">
            <mxRectangle width="14" height="14" as="alternateBounds" />
          </mxGeometry>
        </mxCell>
        <mxCell id="oy_fxyoAN_TUTj9ulkCC-49" value="" style="shape=partialRectangle;html=1;whiteSpace=wrap;connectable=0;strokeColor=#CCCCCC;overflow=hidden;fillColor=none;top=0;left=0;bottom=0;right=0;pointerEvents=1;fontSize=16;strokeWidth=2;" vertex="1" parent="oy_fxyoAN_TUTj9ulkCC-46">
          <mxGeometry x="27" width="13" height="14" as="geometry">
            <mxRectangle width="13" height="14" as="alternateBounds" />
          </mxGeometry>
        </mxCell>
        <mxCell id="oy_fxyoAN_TUTj9ulkCC-50" value="" style="shape=tableRow;horizontal=0;startSize=0;swimlaneHead=0;swimlaneBody=0;strokeColor=#CCCCCC;top=0;left=0;bottom=0;right=0;collapsible=0;dropTarget=0;fillColor=none;points=[[0,0.5],[1,0.5]];portConstraint=eastwest;fontSize=16;strokeWidth=2;" vertex="1" parent="oy_fxyoAN_TUTj9ulkCC-41">
          <mxGeometry y="27" width="40" height="13" as="geometry" />
        </mxCell>
        <mxCell id="oy_fxyoAN_TUTj9ulkCC-51" value="" style="shape=partialRectangle;html=1;whiteSpace=wrap;connectable=0;strokeColor=#CCCCCC;overflow=hidden;fillColor=none;top=0;left=0;bottom=0;right=0;pointerEvents=1;fontSize=16;strokeWidth=2;" vertex="1" parent="oy_fxyoAN_TUTj9ulkCC-50">
          <mxGeometry width="13" height="13" as="geometry">
            <mxRectangle width="13" height="13" as="alternateBounds" />
          </mxGeometry>
        </mxCell>
        <mxCell id="oy_fxyoAN_TUTj9ulkCC-52" value="" style="shape=partialRectangle;html=1;whiteSpace=wrap;connectable=0;strokeColor=#CCCCCC;overflow=hidden;fillColor=none;top=0;left=0;bottom=0;right=0;pointerEvents=1;fontSize=16;strokeWidth=2;" vertex="1" parent="oy_fxyoAN_TUTj9ulkCC-50">
          <mxGeometry x="13" width="14" height="13" as="geometry">
            <mxRectangle width="14" height="13" as="alternateBounds" />
          </mxGeometry>
        </mxCell>
        <mxCell id="oy_fxyoAN_TUTj9ulkCC-53" value="" style="shape=partialRectangle;html=1;whiteSpace=wrap;connectable=0;strokeColor=#CCCCCC;overflow=hidden;fillColor=none;top=0;left=0;bottom=0;right=0;pointerEvents=1;fontSize=16;strokeWidth=2;" vertex="1" parent="oy_fxyoAN_TUTj9ulkCC-50">
          <mxGeometry x="27" width="13" height="13" as="geometry">
            <mxRectangle width="13" height="13" as="alternateBounds" />
          </mxGeometry>
        </mxCell>
        <mxCell id="oy_fxyoAN_TUTj9ulkCC-54" value="" style="whiteSpace=wrap;html=1;aspect=fixed;fillColor=none;strokeWidth=2;" vertex="1" parent="oy_fxyoAN_TUTj9ulkCC-40">
          <mxGeometry width="40" height="40" as="geometry" />
        </mxCell>
        <mxCell id="oy_fxyoAN_TUTj9ulkCC-55" value="" style="group;fillColor=default;" vertex="1" connectable="0" parent="1">
          <mxGeometry x="80" y="460" width="40" height="40" as="geometry" />
        </mxCell>
        <mxCell id="oy_fxyoAN_TUTj9ulkCC-56" value="" style="shape=table;startSize=0;container=1;collapsible=0;childLayout=tableLayout;fontSize=16;fillColor=none;strokeColor=#CCCCCC;strokeWidth=2;" vertex="1" parent="oy_fxyoAN_TUTj9ulkCC-55">
          <mxGeometry width="40" height="40" as="geometry" />
        </mxCell>
        <mxCell id="oy_fxyoAN_TUTj9ulkCC-57" value="" style="shape=tableRow;horizontal=0;startSize=0;swimlaneHead=0;swimlaneBody=0;strokeColor=#CCCCCC;top=0;left=0;bottom=0;right=0;collapsible=0;dropTarget=0;fillColor=none;points=[[0,0.5],[1,0.5]];portConstraint=eastwest;fontSize=16;strokeWidth=2;" vertex="1" parent="oy_fxyoAN_TUTj9ulkCC-56">
          <mxGeometry width="40" height="13" as="geometry" />
        </mxCell>
        <mxCell id="oy_fxyoAN_TUTj9ulkCC-58" value="" style="shape=partialRectangle;html=1;whiteSpace=wrap;connectable=0;strokeColor=#CCCCCC;overflow=hidden;fillColor=none;top=0;left=0;bottom=0;right=0;pointerEvents=1;fontSize=16;strokeWidth=2;" vertex="1" parent="oy_fxyoAN_TUTj9ulkCC-57">
          <mxGeometry width="13" height="13" as="geometry">
            <mxRectangle width="13" height="13" as="alternateBounds" />
          </mxGeometry>
        </mxCell>
        <mxCell id="oy_fxyoAN_TUTj9ulkCC-59" value="" style="shape=partialRectangle;html=1;whiteSpace=wrap;connectable=0;strokeColor=#CCCCCC;overflow=hidden;fillColor=none;top=0;left=0;bottom=0;right=0;pointerEvents=1;fontSize=16;strokeWidth=2;" vertex="1" parent="oy_fxyoAN_TUTj9ulkCC-57">
          <mxGeometry x="13" width="14" height="13" as="geometry">
            <mxRectangle width="14" height="13" as="alternateBounds" />
          </mxGeometry>
        </mxCell>
        <mxCell id="oy_fxyoAN_TUTj9ulkCC-60" value="" style="shape=partialRectangle;html=1;whiteSpace=wrap;connectable=0;strokeColor=#CCCCCC;overflow=hidden;fillColor=none;top=0;left=0;bottom=0;right=0;pointerEvents=1;fontSize=16;strokeWidth=2;" vertex="1" parent="oy_fxyoAN_TUTj9ulkCC-57">
          <mxGeometry x="27" width="13" height="13" as="geometry">
            <mxRectangle width="13" height="13" as="alternateBounds" />
          </mxGeometry>
        </mxCell>
        <mxCell id="oy_fxyoAN_TUTj9ulkCC-61" value="" style="shape=tableRow;horizontal=0;startSize=0;swimlaneHead=0;swimlaneBody=0;strokeColor=#CCCCCC;top=0;left=0;bottom=0;right=0;collapsible=0;dropTarget=0;fillColor=none;points=[[0,0.5],[1,0.5]];portConstraint=eastwest;fontSize=16;strokeWidth=2;" vertex="1" parent="oy_fxyoAN_TUTj9ulkCC-56">
          <mxGeometry y="13" width="40" height="14" as="geometry" />
        </mxCell>
        <mxCell id="oy_fxyoAN_TUTj9ulkCC-62" value="" style="shape=partialRectangle;html=1;whiteSpace=wrap;connectable=0;strokeColor=#CCCCCC;overflow=hidden;fillColor=none;top=0;left=0;bottom=0;right=0;pointerEvents=1;fontSize=16;strokeWidth=2;" vertex="1" parent="oy_fxyoAN_TUTj9ulkCC-61">
          <mxGeometry width="13" height="14" as="geometry">
            <mxRectangle width="13" height="14" as="alternateBounds" />
          </mxGeometry>
        </mxCell>
        <mxCell id="oy_fxyoAN_TUTj9ulkCC-63" value="" style="shape=partialRectangle;html=1;whiteSpace=wrap;connectable=0;strokeColor=#CCCCCC;overflow=hidden;fillColor=none;top=0;left=0;bottom=0;right=0;pointerEvents=1;fontSize=16;strokeWidth=2;" vertex="1" parent="oy_fxyoAN_TUTj9ulkCC-61">
          <mxGeometry x="13" width="14" height="14" as="geometry">
            <mxRectangle width="14" height="14" as="alternateBounds" />
          </mxGeometry>
        </mxCell>
        <mxCell id="oy_fxyoAN_TUTj9ulkCC-64" value="" style="shape=partialRectangle;html=1;whiteSpace=wrap;connectable=0;strokeColor=#CCCCCC;overflow=hidden;fillColor=none;top=0;left=0;bottom=0;right=0;pointerEvents=1;fontSize=16;strokeWidth=2;" vertex="1" parent="oy_fxyoAN_TUTj9ulkCC-61">
          <mxGeometry x="27" width="13" height="14" as="geometry">
            <mxRectangle width="13" height="14" as="alternateBounds" />
          </mxGeometry>
        </mxCell>
        <mxCell id="oy_fxyoAN_TUTj9ulkCC-65" value="" style="shape=tableRow;horizontal=0;startSize=0;swimlaneHead=0;swimlaneBody=0;strokeColor=#CCCCCC;top=0;left=0;bottom=0;right=0;collapsible=0;dropTarget=0;fillColor=none;points=[[0,0.5],[1,0.5]];portConstraint=eastwest;fontSize=16;strokeWidth=2;" vertex="1" parent="oy_fxyoAN_TUTj9ulkCC-56">
          <mxGeometry y="27" width="40" height="13" as="geometry" />
        </mxCell>
        <mxCell id="oy_fxyoAN_TUTj9ulkCC-66" value="" style="shape=partialRectangle;html=1;whiteSpace=wrap;connectable=0;strokeColor=#CCCCCC;overflow=hidden;fillColor=none;top=0;left=0;bottom=0;right=0;pointerEvents=1;fontSize=16;strokeWidth=2;" vertex="1" parent="oy_fxyoAN_TUTj9ulkCC-65">
          <mxGeometry width="13" height="13" as="geometry">
            <mxRectangle width="13" height="13" as="alternateBounds" />
          </mxGeometry>
        </mxCell>
        <mxCell id="oy_fxyoAN_TUTj9ulkCC-67" value="" style="shape=partialRectangle;html=1;whiteSpace=wrap;connectable=0;strokeColor=#CCCCCC;overflow=hidden;fillColor=none;top=0;left=0;bottom=0;right=0;pointerEvents=1;fontSize=16;strokeWidth=2;" vertex="1" parent="oy_fxyoAN_TUTj9ulkCC-65">
          <mxGeometry x="13" width="14" height="13" as="geometry">
            <mxRectangle width="14" height="13" as="alternateBounds" />
          </mxGeometry>
        </mxCell>
        <mxCell id="oy_fxyoAN_TUTj9ulkCC-68" value="" style="shape=partialRectangle;html=1;whiteSpace=wrap;connectable=0;strokeColor=#CCCCCC;overflow=hidden;fillColor=none;top=0;left=0;bottom=0;right=0;pointerEvents=1;fontSize=16;strokeWidth=2;" vertex="1" parent="oy_fxyoAN_TUTj9ulkCC-65">
          <mxGeometry x="27" width="13" height="13" as="geometry">
            <mxRectangle width="13" height="13" as="alternateBounds" />
          </mxGeometry>
        </mxCell>
        <mxCell id="oy_fxyoAN_TUTj9ulkCC-69" value="" style="whiteSpace=wrap;html=1;aspect=fixed;fillColor=none;strokeWidth=2;" vertex="1" parent="oy_fxyoAN_TUTj9ulkCC-55">
          <mxGeometry width="40" height="40" as="geometry" />
        </mxCell>
        <mxCell id="oy_fxyoAN_TUTj9ulkCC-70" value="" style="ellipse;whiteSpace=wrap;html=1;aspect=fixed;flipH=1;flipV=1;fillColor=none;" vertex="1" parent="1">
          <mxGeometry x="720" y="200" width="40" height="40" as="geometry" />
        </mxCell>
        <mxCell id="oy_fxyoAN_TUTj9ulkCC-71" value="" style="ellipse;whiteSpace=wrap;html=1;aspect=fixed;flipH=1;flipV=1;fillColor=none;" vertex="1" parent="1">
          <mxGeometry x="720" y="340" width="40" height="40" as="geometry" />
        </mxCell>
        <mxCell id="oy_fxyoAN_TUTj9ulkCC-72" value="" style="ellipse;whiteSpace=wrap;html=1;aspect=fixed;flipH=1;flipV=1;fillColor=none;" vertex="1" parent="1">
          <mxGeometry x="720" y="520" width="40" height="40" as="geometry" />
        </mxCell>
        <mxCell id="oy_fxyoAN_TUTj9ulkCC-123" value="" style="edgeStyle=orthogonalEdgeStyle;rounded=0;orthogonalLoop=1;jettySize=auto;html=1;strokeWidth=2;" edge="1" parent="1" source="oy_fxyoAN_TUTj9ulkCC-119" target="oy_fxyoAN_TUTj9ulkCC-122">
          <mxGeometry relative="1" as="geometry" />
        </mxCell>
        <mxCell id="oy_fxyoAN_TUTj9ulkCC-119" value="" style="ellipse;whiteSpace=wrap;html=1;aspect=fixed;fillColor=#d5e8d4;gradientColor=#97d077;strokeColor=#82b366;" vertex="1" parent="1">
          <mxGeometry x="220" y="340" width="40" height="40" as="geometry" />
        </mxCell>
        <mxCell id="oy_fxyoAN_TUTj9ulkCC-137" style="edgeStyle=orthogonalEdgeStyle;rounded=0;orthogonalLoop=1;jettySize=auto;html=1;exitX=0.5;exitY=0;exitDx=0;exitDy=0;entryX=0.5;entryY=1;entryDx=0;entryDy=0;strokeWidth=2;" edge="1" parent="1" source="oy_fxyoAN_TUTj9ulkCC-120" target="oy_fxyoAN_TUTj9ulkCC-119">
          <mxGeometry relative="1" as="geometry" />
        </mxCell>
        <mxCell id="oy_fxyoAN_TUTj9ulkCC-120" value="" style="ellipse;whiteSpace=wrap;html=1;aspect=fixed;fillColor=#d5e8d4;gradientColor=#97d077;strokeColor=#82b366;" vertex="1" parent="1">
          <mxGeometry x="220" y="400" width="40" height="40" as="geometry" />
        </mxCell>
        <mxCell id="oy_fxyoAN_TUTj9ulkCC-131" style="rounded=0;orthogonalLoop=1;jettySize=auto;html=1;exitX=1;exitY=0.5;exitDx=0;exitDy=0;entryX=0;entryY=0.5;entryDx=0;entryDy=0;strokeWidth=2;" edge="1" parent="1" source="oy_fxyoAN_TUTj9ulkCC-121" target="oy_fxyoAN_TUTj9ulkCC-70">
          <mxGeometry relative="1" as="geometry" />
        </mxCell>
        <mxCell id="oy_fxyoAN_TUTj9ulkCC-132" style="edgeStyle=orthogonalEdgeStyle;rounded=0;orthogonalLoop=1;jettySize=auto;html=1;exitX=1;exitY=0.5;exitDx=0;exitDy=0;entryX=0;entryY=0.5;entryDx=0;entryDy=0;strokeWidth=2;" edge="1" parent="1" source="oy_fxyoAN_TUTj9ulkCC-121" target="oy_fxyoAN_TUTj9ulkCC-71">
          <mxGeometry relative="1" as="geometry" />
        </mxCell>
        <mxCell id="oy_fxyoAN_TUTj9ulkCC-133" style="rounded=0;orthogonalLoop=1;jettySize=auto;html=1;exitX=1;exitY=0.5;exitDx=0;exitDy=0;entryX=0;entryY=0.5;entryDx=0;entryDy=0;strokeWidth=2;" edge="1" parent="1" source="oy_fxyoAN_TUTj9ulkCC-121" target="oy_fxyoAN_TUTj9ulkCC-72">
          <mxGeometry relative="1" as="geometry" />
        </mxCell>
        <mxCell id="oy_fxyoAN_TUTj9ulkCC-121" value="" style="rounded=1;whiteSpace=wrap;html=1;fillColor=#d5e8d4;gradientColor=#97d077;strokeColor=#82b366;" vertex="1" parent="1">
          <mxGeometry x="480" y="340" width="50" height="40" as="geometry" />
        </mxCell>
        <mxCell id="oy_fxyoAN_TUTj9ulkCC-127" value="" style="edgeStyle=orthogonalEdgeStyle;rounded=0;orthogonalLoop=1;jettySize=auto;html=1;strokeWidth=2;" edge="1" parent="1" source="oy_fxyoAN_TUTj9ulkCC-122" target="oy_fxyoAN_TUTj9ulkCC-121">
          <mxGeometry relative="1" as="geometry" />
        </mxCell>
        <mxCell id="oy_fxyoAN_TUTj9ulkCC-122" value="" style="rounded=1;whiteSpace=wrap;html=1;fillColor=#d5e8d4;gradientColor=#97d077;strokeColor=#82b366;" vertex="1" parent="1">
          <mxGeometry x="360" y="340" width="60" height="40" as="geometry" />
        </mxCell>
        <mxCell id="oy_fxyoAN_TUTj9ulkCC-124" value="" style="rounded=1;whiteSpace=wrap;html=1;fillColor=#d5e8d4;gradientColor=#97d077;strokeColor=#82b366;" vertex="1" parent="1">
          <mxGeometry x="360" y="400" width="60" height="40" as="geometry" />
        </mxCell>
        <mxCell id="oy_fxyoAN_TUTj9ulkCC-125" value="" style="edgeStyle=segmentEdgeStyle;endArrow=none;html=1;curved=0;rounded=0;endSize=8;startSize=6;exitX=0;exitY=0.5;exitDx=0;exitDy=0;exitPerimeter=0;startArrow=classic;startFill=1;endFill=0;jumpSize=0;strokeWidth=2;" edge="1" parent="1" source="oy_fxyoAN_TUTj9ulkCC-124">
          <mxGeometry width="50" height="50" relative="1" as="geometry">
            <mxPoint x="350" y="430" as="sourcePoint" />
            <mxPoint x="300" y="360" as="targetPoint" />
          </mxGeometry>
        </mxCell>
        <mxCell id="oy_fxyoAN_TUTj9ulkCC-73" value="" style="group;flipH=1;flipV=1;fillColor=default;" vertex="1" connectable="0" parent="1">
          <mxGeometry x="600" y="280" width="40" height="40" as="geometry" />
        </mxCell>
        <mxCell id="oy_fxyoAN_TUTj9ulkCC-74" value="" style="shape=table;startSize=0;container=1;collapsible=0;childLayout=tableLayout;fontSize=16;fillColor=none;strokeColor=#CCCCCC;strokeWidth=2;" vertex="1" parent="oy_fxyoAN_TUTj9ulkCC-73">
          <mxGeometry width="40" height="40" as="geometry" />
        </mxCell>
        <mxCell id="oy_fxyoAN_TUTj9ulkCC-75" value="" style="shape=tableRow;horizontal=0;startSize=0;swimlaneHead=0;swimlaneBody=0;strokeColor=#CCCCCC;top=0;left=0;bottom=0;right=0;collapsible=0;dropTarget=0;fillColor=none;points=[[0,0.5],[1,0.5]];portConstraint=eastwest;fontSize=16;strokeWidth=2;" vertex="1" parent="oy_fxyoAN_TUTj9ulkCC-74">
          <mxGeometry width="40" height="13" as="geometry" />
        </mxCell>
        <mxCell id="oy_fxyoAN_TUTj9ulkCC-76" value="" style="shape=partialRectangle;html=1;whiteSpace=wrap;connectable=0;strokeColor=#CCCCCC;overflow=hidden;fillColor=none;top=0;left=0;bottom=0;right=0;pointerEvents=1;fontSize=16;strokeWidth=2;" vertex="1" parent="oy_fxyoAN_TUTj9ulkCC-75">
          <mxGeometry width="13" height="13" as="geometry">
            <mxRectangle width="13" height="13" as="alternateBounds" />
          </mxGeometry>
        </mxCell>
        <mxCell id="oy_fxyoAN_TUTj9ulkCC-77" value="" style="shape=partialRectangle;html=1;whiteSpace=wrap;connectable=0;strokeColor=#CCCCCC;overflow=hidden;fillColor=none;top=0;left=0;bottom=0;right=0;pointerEvents=1;fontSize=16;strokeWidth=2;" vertex="1" parent="oy_fxyoAN_TUTj9ulkCC-75">
          <mxGeometry x="13" width="14" height="13" as="geometry">
            <mxRectangle width="14" height="13" as="alternateBounds" />
          </mxGeometry>
        </mxCell>
        <mxCell id="oy_fxyoAN_TUTj9ulkCC-78" value="" style="shape=partialRectangle;html=1;whiteSpace=wrap;connectable=0;strokeColor=#CCCCCC;overflow=hidden;fillColor=none;top=0;left=0;bottom=0;right=0;pointerEvents=1;fontSize=16;strokeWidth=2;" vertex="1" parent="oy_fxyoAN_TUTj9ulkCC-75">
          <mxGeometry x="27" width="13" height="13" as="geometry">
            <mxRectangle width="13" height="13" as="alternateBounds" />
          </mxGeometry>
        </mxCell>
        <mxCell id="oy_fxyoAN_TUTj9ulkCC-79" value="" style="shape=tableRow;horizontal=0;startSize=0;swimlaneHead=0;swimlaneBody=0;strokeColor=#CCCCCC;top=0;left=0;bottom=0;right=0;collapsible=0;dropTarget=0;fillColor=none;points=[[0,0.5],[1,0.5]];portConstraint=eastwest;fontSize=16;strokeWidth=2;" vertex="1" parent="oy_fxyoAN_TUTj9ulkCC-74">
          <mxGeometry y="13" width="40" height="14" as="geometry" />
        </mxCell>
        <mxCell id="oy_fxyoAN_TUTj9ulkCC-80" value="" style="shape=partialRectangle;html=1;whiteSpace=wrap;connectable=0;strokeColor=#CCCCCC;overflow=hidden;fillColor=none;top=0;left=0;bottom=0;right=0;pointerEvents=1;fontSize=16;strokeWidth=2;" vertex="1" parent="oy_fxyoAN_TUTj9ulkCC-79">
          <mxGeometry width="13" height="14" as="geometry">
            <mxRectangle width="13" height="14" as="alternateBounds" />
          </mxGeometry>
        </mxCell>
        <mxCell id="oy_fxyoAN_TUTj9ulkCC-81" value="" style="shape=partialRectangle;html=1;whiteSpace=wrap;connectable=0;strokeColor=#CCCCCC;overflow=hidden;fillColor=none;top=0;left=0;bottom=0;right=0;pointerEvents=1;fontSize=16;strokeWidth=2;" vertex="1" parent="oy_fxyoAN_TUTj9ulkCC-79">
          <mxGeometry x="13" width="14" height="14" as="geometry">
            <mxRectangle width="14" height="14" as="alternateBounds" />
          </mxGeometry>
        </mxCell>
        <mxCell id="oy_fxyoAN_TUTj9ulkCC-82" value="" style="shape=partialRectangle;html=1;whiteSpace=wrap;connectable=0;strokeColor=#CCCCCC;overflow=hidden;fillColor=none;top=0;left=0;bottom=0;right=0;pointerEvents=1;fontSize=16;strokeWidth=2;" vertex="1" parent="oy_fxyoAN_TUTj9ulkCC-79">
          <mxGeometry x="27" width="13" height="14" as="geometry">
            <mxRectangle width="13" height="14" as="alternateBounds" />
          </mxGeometry>
        </mxCell>
        <mxCell id="oy_fxyoAN_TUTj9ulkCC-83" value="" style="shape=tableRow;horizontal=0;startSize=0;swimlaneHead=0;swimlaneBody=0;strokeColor=#CCCCCC;top=0;left=0;bottom=0;right=0;collapsible=0;dropTarget=0;fillColor=none;points=[[0,0.5],[1,0.5]];portConstraint=eastwest;fontSize=16;strokeWidth=2;" vertex="1" parent="oy_fxyoAN_TUTj9ulkCC-74">
          <mxGeometry y="27" width="40" height="13" as="geometry" />
        </mxCell>
        <mxCell id="oy_fxyoAN_TUTj9ulkCC-84" value="" style="shape=partialRectangle;html=1;whiteSpace=wrap;connectable=0;strokeColor=#CCCCCC;overflow=hidden;fillColor=none;top=0;left=0;bottom=0;right=0;pointerEvents=1;fontSize=16;strokeWidth=2;" vertex="1" parent="oy_fxyoAN_TUTj9ulkCC-83">
          <mxGeometry width="13" height="13" as="geometry">
            <mxRectangle width="13" height="13" as="alternateBounds" />
          </mxGeometry>
        </mxCell>
        <mxCell id="oy_fxyoAN_TUTj9ulkCC-85" value="" style="shape=partialRectangle;html=1;whiteSpace=wrap;connectable=0;strokeColor=#CCCCCC;overflow=hidden;fillColor=none;top=0;left=0;bottom=0;right=0;pointerEvents=1;fontSize=16;strokeWidth=2;" vertex="1" parent="oy_fxyoAN_TUTj9ulkCC-83">
          <mxGeometry x="13" width="14" height="13" as="geometry">
            <mxRectangle width="14" height="13" as="alternateBounds" />
          </mxGeometry>
        </mxCell>
        <mxCell id="oy_fxyoAN_TUTj9ulkCC-86" value="" style="shape=partialRectangle;html=1;whiteSpace=wrap;connectable=0;strokeColor=#CCCCCC;overflow=hidden;fillColor=none;top=0;left=0;bottom=0;right=0;pointerEvents=1;fontSize=16;strokeWidth=2;" vertex="1" parent="oy_fxyoAN_TUTj9ulkCC-83">
          <mxGeometry x="27" width="13" height="13" as="geometry">
            <mxRectangle width="13" height="13" as="alternateBounds" />
          </mxGeometry>
        </mxCell>
        <mxCell id="oy_fxyoAN_TUTj9ulkCC-87" value="" style="whiteSpace=wrap;html=1;aspect=fixed;fillColor=none;strokeWidth=2;" vertex="1" parent="oy_fxyoAN_TUTj9ulkCC-73">
          <mxGeometry width="40" height="40" as="geometry" />
        </mxCell>
        <mxCell id="oy_fxyoAN_TUTj9ulkCC-88" value="" style="group;flipH=1;flipV=1;fillColor=default;" vertex="1" connectable="0" parent="1">
          <mxGeometry x="600" y="340" width="40" height="40" as="geometry" />
        </mxCell>
        <mxCell id="oy_fxyoAN_TUTj9ulkCC-89" value="" style="shape=table;startSize=0;container=1;collapsible=0;childLayout=tableLayout;fontSize=16;fillColor=none;strokeColor=#CCCCCC;strokeWidth=2;" vertex="1" parent="oy_fxyoAN_TUTj9ulkCC-88">
          <mxGeometry width="40" height="40" as="geometry" />
        </mxCell>
        <mxCell id="oy_fxyoAN_TUTj9ulkCC-90" value="" style="shape=tableRow;horizontal=0;startSize=0;swimlaneHead=0;swimlaneBody=0;strokeColor=#CCCCCC;top=0;left=0;bottom=0;right=0;collapsible=0;dropTarget=0;fillColor=none;points=[[0,0.5],[1,0.5]];portConstraint=eastwest;fontSize=16;strokeWidth=2;" vertex="1" parent="oy_fxyoAN_TUTj9ulkCC-89">
          <mxGeometry width="40" height="13" as="geometry" />
        </mxCell>
        <mxCell id="oy_fxyoAN_TUTj9ulkCC-91" value="" style="shape=partialRectangle;html=1;whiteSpace=wrap;connectable=0;strokeColor=#CCCCCC;overflow=hidden;fillColor=none;top=0;left=0;bottom=0;right=0;pointerEvents=1;fontSize=16;strokeWidth=2;" vertex="1" parent="oy_fxyoAN_TUTj9ulkCC-90">
          <mxGeometry width="13" height="13" as="geometry">
            <mxRectangle width="13" height="13" as="alternateBounds" />
          </mxGeometry>
        </mxCell>
        <mxCell id="oy_fxyoAN_TUTj9ulkCC-92" value="" style="shape=partialRectangle;html=1;whiteSpace=wrap;connectable=0;strokeColor=#CCCCCC;overflow=hidden;fillColor=none;top=0;left=0;bottom=0;right=0;pointerEvents=1;fontSize=16;strokeWidth=2;" vertex="1" parent="oy_fxyoAN_TUTj9ulkCC-90">
          <mxGeometry x="13" width="14" height="13" as="geometry">
            <mxRectangle width="14" height="13" as="alternateBounds" />
          </mxGeometry>
        </mxCell>
        <mxCell id="oy_fxyoAN_TUTj9ulkCC-93" value="" style="shape=partialRectangle;html=1;whiteSpace=wrap;connectable=0;strokeColor=#CCCCCC;overflow=hidden;fillColor=none;top=0;left=0;bottom=0;right=0;pointerEvents=1;fontSize=16;strokeWidth=2;" vertex="1" parent="oy_fxyoAN_TUTj9ulkCC-90">
          <mxGeometry x="27" width="13" height="13" as="geometry">
            <mxRectangle width="13" height="13" as="alternateBounds" />
          </mxGeometry>
        </mxCell>
        <mxCell id="oy_fxyoAN_TUTj9ulkCC-94" value="" style="shape=tableRow;horizontal=0;startSize=0;swimlaneHead=0;swimlaneBody=0;strokeColor=#CCCCCC;top=0;left=0;bottom=0;right=0;collapsible=0;dropTarget=0;fillColor=none;points=[[0,0.5],[1,0.5]];portConstraint=eastwest;fontSize=16;strokeWidth=2;" vertex="1" parent="oy_fxyoAN_TUTj9ulkCC-89">
          <mxGeometry y="13" width="40" height="14" as="geometry" />
        </mxCell>
        <mxCell id="oy_fxyoAN_TUTj9ulkCC-95" value="" style="shape=partialRectangle;html=1;whiteSpace=wrap;connectable=0;strokeColor=#CCCCCC;overflow=hidden;fillColor=none;top=0;left=0;bottom=0;right=0;pointerEvents=1;fontSize=16;strokeWidth=2;" vertex="1" parent="oy_fxyoAN_TUTj9ulkCC-94">
          <mxGeometry width="13" height="14" as="geometry">
            <mxRectangle width="13" height="14" as="alternateBounds" />
          </mxGeometry>
        </mxCell>
        <mxCell id="oy_fxyoAN_TUTj9ulkCC-96" value="" style="shape=partialRectangle;html=1;whiteSpace=wrap;connectable=0;strokeColor=#CCCCCC;overflow=hidden;fillColor=none;top=0;left=0;bottom=0;right=0;pointerEvents=1;fontSize=16;strokeWidth=2;" vertex="1" parent="oy_fxyoAN_TUTj9ulkCC-94">
          <mxGeometry x="13" width="14" height="14" as="geometry">
            <mxRectangle width="14" height="14" as="alternateBounds" />
          </mxGeometry>
        </mxCell>
        <mxCell id="oy_fxyoAN_TUTj9ulkCC-97" value="" style="shape=partialRectangle;html=1;whiteSpace=wrap;connectable=0;strokeColor=#CCCCCC;overflow=hidden;fillColor=none;top=0;left=0;bottom=0;right=0;pointerEvents=1;fontSize=16;strokeWidth=2;" vertex="1" parent="oy_fxyoAN_TUTj9ulkCC-94">
          <mxGeometry x="27" width="13" height="14" as="geometry">
            <mxRectangle width="13" height="14" as="alternateBounds" />
          </mxGeometry>
        </mxCell>
        <mxCell id="oy_fxyoAN_TUTj9ulkCC-98" value="" style="shape=tableRow;horizontal=0;startSize=0;swimlaneHead=0;swimlaneBody=0;strokeColor=#CCCCCC;top=0;left=0;bottom=0;right=0;collapsible=0;dropTarget=0;fillColor=none;points=[[0,0.5],[1,0.5]];portConstraint=eastwest;fontSize=16;strokeWidth=2;" vertex="1" parent="oy_fxyoAN_TUTj9ulkCC-89">
          <mxGeometry y="27" width="40" height="13" as="geometry" />
        </mxCell>
        <mxCell id="oy_fxyoAN_TUTj9ulkCC-99" value="" style="shape=partialRectangle;html=1;whiteSpace=wrap;connectable=0;strokeColor=#CCCCCC;overflow=hidden;fillColor=none;top=0;left=0;bottom=0;right=0;pointerEvents=1;fontSize=16;strokeWidth=2;" vertex="1" parent="oy_fxyoAN_TUTj9ulkCC-98">
          <mxGeometry width="13" height="13" as="geometry">
            <mxRectangle width="13" height="13" as="alternateBounds" />
          </mxGeometry>
        </mxCell>
        <mxCell id="oy_fxyoAN_TUTj9ulkCC-100" value="" style="shape=partialRectangle;html=1;whiteSpace=wrap;connectable=0;strokeColor=#CCCCCC;overflow=hidden;fillColor=none;top=0;left=0;bottom=0;right=0;pointerEvents=1;fontSize=16;strokeWidth=2;" vertex="1" parent="oy_fxyoAN_TUTj9ulkCC-98">
          <mxGeometry x="13" width="14" height="13" as="geometry">
            <mxRectangle width="14" height="13" as="alternateBounds" />
          </mxGeometry>
        </mxCell>
        <mxCell id="oy_fxyoAN_TUTj9ulkCC-101" value="" style="shape=partialRectangle;html=1;whiteSpace=wrap;connectable=0;strokeColor=#CCCCCC;overflow=hidden;fillColor=none;top=0;left=0;bottom=0;right=0;pointerEvents=1;fontSize=16;strokeWidth=2;" vertex="1" parent="oy_fxyoAN_TUTj9ulkCC-98">
          <mxGeometry x="27" width="13" height="13" as="geometry">
            <mxRectangle width="13" height="13" as="alternateBounds" />
          </mxGeometry>
        </mxCell>
        <mxCell id="oy_fxyoAN_TUTj9ulkCC-102" value="" style="whiteSpace=wrap;html=1;aspect=fixed;fillColor=none;strokeWidth=2;" vertex="1" parent="oy_fxyoAN_TUTj9ulkCC-88">
          <mxGeometry width="40" height="40" as="geometry" />
        </mxCell>
        <mxCell id="oy_fxyoAN_TUTj9ulkCC-103" value="" style="group;flipH=1;flipV=1;fillColor=default;" vertex="1" connectable="0" parent="1">
          <mxGeometry x="600" y="400" width="40" height="40" as="geometry" />
        </mxCell>
        <mxCell id="oy_fxyoAN_TUTj9ulkCC-104" value="" style="shape=table;startSize=0;container=1;collapsible=0;childLayout=tableLayout;fontSize=16;fillColor=none;strokeColor=#CCCCCC;strokeWidth=2;" vertex="1" parent="oy_fxyoAN_TUTj9ulkCC-103">
          <mxGeometry width="40" height="40" as="geometry" />
        </mxCell>
        <mxCell id="oy_fxyoAN_TUTj9ulkCC-105" value="" style="shape=tableRow;horizontal=0;startSize=0;swimlaneHead=0;swimlaneBody=0;strokeColor=#CCCCCC;top=0;left=0;bottom=0;right=0;collapsible=0;dropTarget=0;fillColor=none;points=[[0,0.5],[1,0.5]];portConstraint=eastwest;fontSize=16;strokeWidth=2;" vertex="1" parent="oy_fxyoAN_TUTj9ulkCC-104">
          <mxGeometry width="40" height="13" as="geometry" />
        </mxCell>
        <mxCell id="oy_fxyoAN_TUTj9ulkCC-106" value="" style="shape=partialRectangle;html=1;whiteSpace=wrap;connectable=0;strokeColor=#CCCCCC;overflow=hidden;fillColor=none;top=0;left=0;bottom=0;right=0;pointerEvents=1;fontSize=16;strokeWidth=2;" vertex="1" parent="oy_fxyoAN_TUTj9ulkCC-105">
          <mxGeometry width="13" height="13" as="geometry">
            <mxRectangle width="13" height="13" as="alternateBounds" />
          </mxGeometry>
        </mxCell>
        <mxCell id="oy_fxyoAN_TUTj9ulkCC-107" value="" style="shape=partialRectangle;html=1;whiteSpace=wrap;connectable=0;strokeColor=#CCCCCC;overflow=hidden;fillColor=none;top=0;left=0;bottom=0;right=0;pointerEvents=1;fontSize=16;strokeWidth=2;" vertex="1" parent="oy_fxyoAN_TUTj9ulkCC-105">
          <mxGeometry x="13" width="14" height="13" as="geometry">
            <mxRectangle width="14" height="13" as="alternateBounds" />
          </mxGeometry>
        </mxCell>
        <mxCell id="oy_fxyoAN_TUTj9ulkCC-108" value="" style="shape=partialRectangle;html=1;whiteSpace=wrap;connectable=0;strokeColor=#CCCCCC;overflow=hidden;fillColor=none;top=0;left=0;bottom=0;right=0;pointerEvents=1;fontSize=16;strokeWidth=2;" vertex="1" parent="oy_fxyoAN_TUTj9ulkCC-105">
          <mxGeometry x="27" width="13" height="13" as="geometry">
            <mxRectangle width="13" height="13" as="alternateBounds" />
          </mxGeometry>
        </mxCell>
        <mxCell id="oy_fxyoAN_TUTj9ulkCC-109" value="" style="shape=tableRow;horizontal=0;startSize=0;swimlaneHead=0;swimlaneBody=0;strokeColor=#CCCCCC;top=0;left=0;bottom=0;right=0;collapsible=0;dropTarget=0;fillColor=none;points=[[0,0.5],[1,0.5]];portConstraint=eastwest;fontSize=16;strokeWidth=2;" vertex="1" parent="oy_fxyoAN_TUTj9ulkCC-104">
          <mxGeometry y="13" width="40" height="14" as="geometry" />
        </mxCell>
        <mxCell id="oy_fxyoAN_TUTj9ulkCC-110" value="" style="shape=partialRectangle;html=1;whiteSpace=wrap;connectable=0;strokeColor=#CCCCCC;overflow=hidden;fillColor=none;top=0;left=0;bottom=0;right=0;pointerEvents=1;fontSize=16;strokeWidth=2;" vertex="1" parent="oy_fxyoAN_TUTj9ulkCC-109">
          <mxGeometry width="13" height="14" as="geometry">
            <mxRectangle width="13" height="14" as="alternateBounds" />
          </mxGeometry>
        </mxCell>
        <mxCell id="oy_fxyoAN_TUTj9ulkCC-111" value="" style="shape=partialRectangle;html=1;whiteSpace=wrap;connectable=0;strokeColor=#CCCCCC;overflow=hidden;fillColor=none;top=0;left=0;bottom=0;right=0;pointerEvents=1;fontSize=16;strokeWidth=2;" vertex="1" parent="oy_fxyoAN_TUTj9ulkCC-109">
          <mxGeometry x="13" width="14" height="14" as="geometry">
            <mxRectangle width="14" height="14" as="alternateBounds" />
          </mxGeometry>
        </mxCell>
        <mxCell id="oy_fxyoAN_TUTj9ulkCC-112" value="" style="shape=partialRectangle;html=1;whiteSpace=wrap;connectable=0;strokeColor=#CCCCCC;overflow=hidden;fillColor=none;top=0;left=0;bottom=0;right=0;pointerEvents=1;fontSize=16;strokeWidth=2;" vertex="1" parent="oy_fxyoAN_TUTj9ulkCC-109">
          <mxGeometry x="27" width="13" height="14" as="geometry">
            <mxRectangle width="13" height="14" as="alternateBounds" />
          </mxGeometry>
        </mxCell>
        <mxCell id="oy_fxyoAN_TUTj9ulkCC-113" value="" style="shape=tableRow;horizontal=0;startSize=0;swimlaneHead=0;swimlaneBody=0;strokeColor=#CCCCCC;top=0;left=0;bottom=0;right=0;collapsible=0;dropTarget=0;fillColor=none;points=[[0,0.5],[1,0.5]];portConstraint=eastwest;fontSize=16;strokeWidth=2;" vertex="1" parent="oy_fxyoAN_TUTj9ulkCC-104">
          <mxGeometry y="27" width="40" height="13" as="geometry" />
        </mxCell>
        <mxCell id="oy_fxyoAN_TUTj9ulkCC-114" value="" style="shape=partialRectangle;html=1;whiteSpace=wrap;connectable=0;strokeColor=#CCCCCC;overflow=hidden;fillColor=none;top=0;left=0;bottom=0;right=0;pointerEvents=1;fontSize=16;strokeWidth=2;" vertex="1" parent="oy_fxyoAN_TUTj9ulkCC-113">
          <mxGeometry width="13" height="13" as="geometry">
            <mxRectangle width="13" height="13" as="alternateBounds" />
          </mxGeometry>
        </mxCell>
        <mxCell id="oy_fxyoAN_TUTj9ulkCC-115" value="" style="shape=partialRectangle;html=1;whiteSpace=wrap;connectable=0;strokeColor=#CCCCCC;overflow=hidden;fillColor=none;top=0;left=0;bottom=0;right=0;pointerEvents=1;fontSize=16;strokeWidth=2;" vertex="1" parent="oy_fxyoAN_TUTj9ulkCC-113">
          <mxGeometry x="13" width="14" height="13" as="geometry">
            <mxRectangle width="14" height="13" as="alternateBounds" />
          </mxGeometry>
        </mxCell>
        <mxCell id="oy_fxyoAN_TUTj9ulkCC-116" value="" style="shape=partialRectangle;html=1;whiteSpace=wrap;connectable=0;strokeColor=#CCCCCC;overflow=hidden;fillColor=none;top=0;left=0;bottom=0;right=0;pointerEvents=1;fontSize=16;strokeWidth=2;" vertex="1" parent="oy_fxyoAN_TUTj9ulkCC-113">
          <mxGeometry x="27" width="13" height="13" as="geometry">
            <mxRectangle width="13" height="13" as="alternateBounds" />
          </mxGeometry>
        </mxCell>
        <mxCell id="oy_fxyoAN_TUTj9ulkCC-117" value="" style="whiteSpace=wrap;html=1;aspect=fixed;fillColor=none;strokeWidth=2;" vertex="1" parent="oy_fxyoAN_TUTj9ulkCC-103">
          <mxGeometry width="40" height="40" as="geometry" />
        </mxCell>
      </root>
    </mxGraphModel>
  </diagram>
</mxfile>
